Coordinates
version=1
nRows=18
nColumns=22
inDegrees=yes

Units are S.I. units (second, meters, Newtons, ...)
If the header above contains a line with 'inDegrees', this indicates whether rotational values are in degrees (yes) or radians (no).

endheader
time	pelvis_tilt	pelvis_list	pelvis_rotation	pelvis_tx	pelvis_ty	pelvis_tz	hip_flexion_r	hip_adduction_r	hip_rotation_r	knee_angle_r	ankle_angle_r	subtalar_angle_r	hip_flexion_l	hip_adduction_l	hip_rotation_l	knee_angle_l	ankle_angle_l	subtalar_angle_l	lumbar_extension	lumbar_bending	lumbar_rotation
      3.35000000	      0.73581351	      4.23225160	    -16.21586423	      0.56067011	      0.88910290	     -0.42973679	     29.80493547	     -2.50030994	    -21.49857620	    -11.19423141	      2.75435540	     -8.63333010	    -10.33385609	     -1.67445814	    -11.50760880	    -19.72436786	     20.96194557	      4.37638153	    -11.85420870	     -5.15858208	    -16.71103978
      3.36000000	      0.74302507	      3.92922440	    -16.45986556	      0.57034461	      0.88745310	     -0.42460987	     29.92890544	     -2.52925487	    -22.84598374	    -12.96231422	      2.74169613	     -9.76091195	    -10.76609061	     -2.15665170	    -11.30970176	    -20.56477740	     20.81680045	      4.63656169	    -11.67903360	     -4.63582721	    -17.00568585
      3.37000000	      0.73585220	      3.57140949	    -16.74084635	      0.58020546	      0.88609871	     -0.41908667	     29.99399440	     -2.47519916	    -24.09691621	    -14.75213420	      2.60297408	    -10.96409052	    -11.17904033	     -2.71089803	    -11.12450659	    -21.48117409	     20.45356926	      4.97604934	    -11.47598899	     -4.06574374	    -17.24379688
      3.38000000	      0.70034252	      3.16053956	    -17.05892776	      0.59019255	      0.88507399	     -0.41318104	     30.00872083	     -2.31920381	    -25.24884524	    -16.46566984	      2.23839915	    -12.11209691	    -11.55811095	     -3.32661881	    -10.90208869	    -22.46177983	     19.96008426	      5.34645417	    -11.23724522	     -3.44452007	    -17.45335884
      3.39000000	      0.62505436	      2.70404440	    -17.45292679	      0.60021853	      0.88438118	     -0.40679142	     29.98181088	     -2.01025848	    -26.16752762	    -18.02752956	      1.76094199	    -13.23801591	    -11.87327457	     -4.00034836	    -10.69671039	    -23.53755586	     19.19499386	      5.76929874	    -10.95349637	     -2.79690036	    -17.59075703
      3.40000000	      0.49724403	      2.21962695	    -17.94630327	      0.61021417	      0.88400452	     -0.39992309	     29.93924194	     -1.53160242	    -26.77052352	    -19.41995222	      1.21602843	    -14.24996076	    -12.09065617	     -4.70753325	    -10.51158766	    -24.73296590	     18.15093725	      6.23533742	    -10.61095099	     -2.13259137	    -17.64603598
      3.41000000	      0.32049100	      1.73695296	    -18.56261642	      0.62010768	      0.88391848	     -0.39255921	     29.89587874	     -0.88633182	    -26.98256778	    -20.65385868	      0.71813788	    -15.10742580	    -12.19345596	     -5.41010859	    -10.34864464	    -26.05942764	     16.77422468	      6.75611349	    -10.21135048	     -1.49322744	    -17.60682719
      3.42000000	      0.10907969	      1.27834854	    -19.29781089	      0.62981622	      0.88410332	     -0.38477838	     29.85214603	     -0.11018861	    -26.83825038	    -21.75614175	      0.32412287	    -15.77358648	    -12.14611272	     -6.08817890	    -10.20927658	    -27.57634871	     15.08756987	      7.28772145	     -9.77760579	     -0.90008959	    -17.49569985
      3.43000000	     -0.11906271	      0.86570685	    -20.14249722	      0.63929350	      0.88455074	     -0.37665673	     29.78420635	      0.75941885	    -26.38802324	    -22.72266358	      0.09064418	    -16.25521902	    -11.93628876	     -6.71384987	    -10.05998851	    -29.29599289	     13.07212383	      7.79331451	     -9.32890633	     -0.37614835	    -17.33307293
      3.44000000	     -0.34587553	      0.51449868	    -21.07329974	      0.64853125	      0.88525907	     -0.36829306	     29.66297281	      1.66883155	    -25.75074573	    -23.55393882	      0.05192205	    -16.56180372	    -11.56267534	     -7.25977370	     -9.82990958	    -31.20417556	     10.71348862	      8.26177795	     -8.88198606	      0.06325264	    -17.11593626
      3.45000000	     -0.54901656	      0.23532238	    -22.06586648	      0.65747512	      0.88621148	     -0.35980360	     29.46442534	      2.57111386	    -24.99252076	    -24.25223734	      0.17832064	    -16.70392731	    -11.00879856	     -7.71673551	     -9.50892397	    -33.31800188	      8.03685716	      8.69149744	     -8.46745704	      0.40762851	    -16.89076369
      3.46000000	     -0.72010175	      0.02552297	    -23.11026233	      0.66609452	      0.88738676	     -0.35126198	     29.16645045	      3.45371699	    -24.14422159	    -24.79316682	      0.40469661	    -16.71232699	    -10.27517881	     -8.07855090	     -9.07455354	    -35.61414752	      5.06306685	      9.01159836	     -8.09990406	      0.66190814	    -16.65021712
      3.47000000	     -0.86934321	     -0.09495222	    -24.13198624	      0.67441444	      0.88872694	     -0.34281954	     28.78840947	      4.24660407	    -23.31710278	    -25.19367843	      0.80101619	    -16.62026556	     -9.31838626	     -8.31345180	     -8.36648141	    -38.06356713	      1.78760854	      9.47539277	     -7.75599556	      0.81495937	    -16.45082225
      3.48000000	     -0.97797160	     -0.16933367	    -25.13338672	      0.68242754	      0.89024230	     -0.33453351	     28.29231403	      4.97537963	    -22.53416742	    -25.43355678	      1.23234356	    -16.46834122	     -8.17403065	     -8.45300826	     -7.45075840	    -40.64955139	     -1.70486459	      9.85250231	     -7.48165138	      0.91290694	    -16.27217540
      3.49000000	     -1.06664596	     -0.21217884	    -26.07707715	      0.69015218	      0.89184990	     -0.32648835	     27.70235529	      5.63856682	    -21.83094634	    -25.52371077	      1.74994808	    -16.26980088	     -6.81742110	     -8.51229925	     -6.30070937	    -43.36412823	     -5.32278334	     10.20710921	     -7.26134301	      0.98518201	    -16.15246651
      3.50000000	     -1.13633326	     -0.23335552	    -26.96603401	      0.69760126	      0.89354439	     -0.31870838	     27.00953287	      6.24737074	    -21.20743076	    -25.43492324	      2.19752260	    -16.09064156	     -5.27134846	     -8.47884383	     -4.94042140	    -46.15805069	     -8.97887231	     10.31241815	     -7.09933972	      1.04027375	    -16.04069441
      3.51000000	     -1.20653024	     -0.25365347	    -27.79058331	      0.70479414	      0.89521879	     -0.31123272	     26.25585756	      6.81826927	    -20.66057190	    -25.22349786	      2.67987179	    -15.90646581	     -3.53511049	     -8.38647599	     -3.43238819	    -49.01917980	    -12.53859334	     10.26276820	     -6.98718969	      1.11668019	    -15.99180370
      3.52000000	     -1.26985725	     -0.28578911	    -28.56736347	      0.71174774	      0.89686381	     -0.30404367	     25.43682111	      7.36526013	    -20.17313111	    -24.89798891	      3.13962878	    -15.73911809	     -1.65698635	     -8.23996356	     -1.84351871	    -51.89214795	    -15.84841703	      9.96222863	     -6.93598025	      1.22025712	    -15.96439752
